<?xml version="1.0" encoding="UTF-8"?>
<svg xmlns="http://www.w3.org/2000/svg" xmlns:xlink="http://www.w3.org/1999/xlink" viewBox="0 0 250 250" width="250px" height="250px">
<g id="surface15884069">
<path style=" stroke:none;fill-rule:nonzero;fill:rgb(94.901961%,94.901961%,94.901961%);fill-opacity:1;" d="M 125 10 C 61.546875 10 10 61.546875 10 125 C 10 145.394531 15.59375 164.429688 24.921875 181.042969 L 10.1875 233.652344 C 9.707031 235.367188 10.171875 237.203125 11.410156 238.480469 C 12.652344 239.757812 14.472656 240.28125 16.203125 239.851562 L 71.054688 226.257812 C 87.171875 234.863281 105.464844 240 125 240 C 188.453125 240 240 188.453125 240 125 C 240 61.546875 188.453125 10 125 10 Z M 125 20 C 183.046875 20 230 66.953125 230 125 C 230 183.046875 183.046875 230 125 230 C 106.390625 230 88.960938 225.148438 73.808594 216.667969 C 72.699219 216.050781 71.398438 215.875 70.164062 216.179688 L 22.128906 228.085938 L 35.007812 182.128906 C 35.382812 180.816406 35.203125 179.410156 34.511719 178.230469 C 25.304688 162.617188 20 144.449219 20 125 C 20 66.953125 66.953125 20 125 20 Z M 83.214844 65 C 80.007812 65 75.429688 66.191406 71.671875 70.246094 C 69.410156 72.679688 60 81.847656 60 97.96875 C 60 114.777344 71.65625 129.277344 73.066406 131.144531 L 73.078125 131.144531 L 73.078125 131.152344 C 72.941406 130.976562 74.863281 133.761719 77.433594 137.101562 C 80 140.4375 83.585938 144.824219 88.097656 149.570312 C 97.113281 159.066406 109.792969 170.035156 125.527344 176.75 C 132.773438 179.832031 138.492188 181.695312 142.824219 183.058594 C 150.847656 185.578125 158.160156 185.195312 163.652344 184.386719 C 167.761719 183.78125 172.285156 181.804688 176.757812 178.972656 C 181.230469 176.144531 185.617188 172.625 187.550781 167.277344 C 188.933594 163.441406 189.636719 159.898438 189.894531 156.984375 C 190.019531 155.523438 190.035156 154.238281 189.941406 153.046875 C 189.847656 151.855469 189.949219 150.941406 188.839844 149.121094 C 186.511719 145.300781 183.875 145.199219 181.125 143.839844 C 179.59375 143.082031 175.242188 140.957031 170.878906 138.878906 C 166.519531 136.800781 162.746094 134.960938 160.421875 134.132812 C 158.953125 133.601562 157.15625 132.839844 154.570312 133.136719 C 151.984375 133.429688 149.425781 135.292969 147.941406 137.5 C 146.527344 139.589844 140.851562 146.292969 139.121094 148.261719 C 139.097656 148.246094 139.25 148.316406 138.566406 147.980469 C 136.421875 146.917969 133.804688 146.019531 129.933594 143.972656 C 126.058594 141.929688 121.210938 138.914062 115.910156 134.238281 L 115.910156 134.226562 C 108.015625 127.28125 102.488281 118.554688 100.742188 115.625 C 100.859375 115.484375 100.726562 115.65625 100.976562 115.410156 L 100.988281 115.398438 C 102.769531 113.644531 104.347656 111.546875 105.683594 110.007812 C 107.578125 107.828125 108.410156 105.90625 109.316406 104.109375 C 111.121094 100.53125 110.117188 96.59375 109.074219 94.519531 L 109.074219 94.511719 C 109.144531 94.65625 108.507812 93.25 107.824219 91.628906 C 107.132812 90.007812 106.257812 87.898438 105.324219 85.652344 C 103.449219 81.164062 101.359375 76.125 100.117188 73.171875 L 100.117188 73.164062 C 98.652344 69.6875 96.671875 67.183594 94.082031 65.976562 C 91.492188 64.769531 89.203125 65.113281 89.113281 65.105469 L 89.101562 65.105469 C 87.253906 65.023438 85.226562 65 83.214844 65 Z M 83.214844 75 C 85.140625 75 87.042969 75.023438 88.632812 75.097656 C 90.269531 75.179688 90.167969 75.1875 89.855469 75.039062 C 89.535156 74.890625 89.96875 74.839844 90.898438 77.050781 C 92.117188 79.941406 94.214844 84.996094 96.09375 89.503906 C 97.03125 91.753906 97.910156 93.867188 98.613281 95.527344 C 99.316406 97.1875 99.695312 98.113281 100.136719 98.996094 L 100.136719 99.003906 L 100.148438 99.015625 C 100.578125 99.867188 100.539062 99.320312 100.390625 99.621094 C 99.335938 101.714844 99.191406 102.226562 98.125 103.457031 C 96.5 105.328125 94.84375 107.417969 93.964844 108.28125 C 93.195312 109.035156 91.8125 110.210938 90.949219 112.511719 C 90.082031 114.8125 90.484375 117.972656 91.875 120.332031 C 93.726562 123.472656 99.820312 133.398438 109.296875 141.738281 C 115.265625 147 120.824219 150.480469 125.261719 152.824219 C 129.703125 155.164062 133.320312 156.53125 134.128906 156.933594 C 136.054688 157.886719 138.152344 158.625 140.59375 158.332031 C 143.039062 158.035156 145.144531 156.554688 146.484375 155.039062 L 146.492188 155.03125 C 148.277344 153.007812 153.578125 146.953125 156.121094 143.222656 C 156.230469 143.261719 156.195312 143.230469 157.039062 143.535156 L 157.039062 143.546875 L 157.050781 143.546875 C 157.4375 143.683594 162.269531 145.847656 166.582031 147.902344 C 170.894531 149.953125 175.269531 152.089844 176.6875 152.792969 C 178.742188 153.808594 179.710938 154.46875 179.960938 154.472656 C 179.976562 154.914062 179.996094 155.390625 179.929688 156.113281 C 179.757812 158.121094 179.21875 160.902344 178.144531 163.878906 C 177.617188 165.332031 174.875 168.339844 171.414062 170.527344 C 167.957031 172.714844 163.746094 174.261719 162.1875 174.492188 C 157.5 175.183594 151.933594 175.433594 145.820312 173.515625 C 141.582031 172.183594 136.296875 170.464844 129.453125 167.550781 C 115.574219 161.628906 103.777344 151.558594 95.351562 142.6875 C 91.136719 138.25 87.761719 134.121094 85.359375 130.996094 C 82.964844 127.878906 81.917969 126.253906 81.042969 125.109375 L 81.035156 125.097656 C 79.484375 123.050781 70 109.855469 70 97.96875 C 70 85.390625 75.84375 80.457031 79.003906 77.050781 C 80.664062 75.261719 82.476562 75 83.210938 75 Z M 83.214844 75 "/>
</g>
</svg>
